<mxfile host="Electron" modified="2024-11-01T07:00:00.811Z" agent="Mozilla/5.0 (Windows NT 10.0; Win64; x64) AppleWebKit/537.36 (KHTML, like Gecko) draw.io/24.4.13 Chrome/124.0.6367.207 Electron/30.0.6 Safari/537.36" etag="Z1A6fcwVNNTnBehXPS83" version="24.4.13" type="device">
  <diagram name="第 1 页" id="pgc-lcV61E5JzPv8L9FJ">
    <mxGraphModel dx="1118" dy="1019" grid="1" gridSize="10" guides="1" tooltips="1" connect="1" arrows="1" fold="1" page="1" pageScale="1" pageWidth="827" pageHeight="1169" math="0" shadow="0">
      <root>
        <mxCell id="0" />
        <mxCell id="1" parent="0" />
        <mxCell id="SCIrpNK60YVOnk4wQiFg-6" value="" style="edgeStyle=orthogonalEdgeStyle;rounded=0;orthogonalLoop=1;jettySize=auto;html=1;" edge="1" parent="1" source="SCIrpNK60YVOnk4wQiFg-1" target="SCIrpNK60YVOnk4wQiFg-2">
          <mxGeometry relative="1" as="geometry" />
        </mxCell>
        <mxCell id="SCIrpNK60YVOnk4wQiFg-16" style="edgeStyle=orthogonalEdgeStyle;rounded=0;orthogonalLoop=1;jettySize=auto;html=1;exitX=1;exitY=0.5;exitDx=0;exitDy=0;entryX=0.5;entryY=0;entryDx=0;entryDy=0;" edge="1" parent="1" source="SCIrpNK60YVOnk4wQiFg-1" target="SCIrpNK60YVOnk4wQiFg-15">
          <mxGeometry relative="1" as="geometry" />
        </mxCell>
        <mxCell id="SCIrpNK60YVOnk4wQiFg-1" value="init" style="rounded=1;whiteSpace=wrap;html=1;" vertex="1" parent="1">
          <mxGeometry x="280" y="120" width="120" height="60" as="geometry" />
        </mxCell>
        <mxCell id="SCIrpNK60YVOnk4wQiFg-7" value="" style="edgeStyle=orthogonalEdgeStyle;rounded=0;orthogonalLoop=1;jettySize=auto;html=1;" edge="1" parent="1" source="SCIrpNK60YVOnk4wQiFg-2" target="SCIrpNK60YVOnk4wQiFg-3">
          <mxGeometry relative="1" as="geometry" />
        </mxCell>
        <mxCell id="SCIrpNK60YVOnk4wQiFg-2" value="stop" style="rounded=1;whiteSpace=wrap;html=1;" vertex="1" parent="1">
          <mxGeometry x="280" y="280" width="120" height="60" as="geometry" />
        </mxCell>
        <mxCell id="SCIrpNK60YVOnk4wQiFg-8" value="" style="edgeStyle=orthogonalEdgeStyle;rounded=0;orthogonalLoop=1;jettySize=auto;html=1;" edge="1" parent="1" source="SCIrpNK60YVOnk4wQiFg-3" target="SCIrpNK60YVOnk4wQiFg-4">
          <mxGeometry relative="1" as="geometry" />
        </mxCell>
        <mxCell id="SCIrpNK60YVOnk4wQiFg-3" value="ready" style="rounded=1;whiteSpace=wrap;html=1;" vertex="1" parent="1">
          <mxGeometry x="280" y="440" width="120" height="60" as="geometry" />
        </mxCell>
        <mxCell id="SCIrpNK60YVOnk4wQiFg-9" style="edgeStyle=orthogonalEdgeStyle;rounded=0;orthogonalLoop=1;jettySize=auto;html=1;exitX=0.25;exitY=1;exitDx=0;exitDy=0;entryX=0.25;entryY=0;entryDx=0;entryDy=0;" edge="1" parent="1" source="SCIrpNK60YVOnk4wQiFg-4" target="SCIrpNK60YVOnk4wQiFg-5">
          <mxGeometry relative="1" as="geometry" />
        </mxCell>
        <mxCell id="SCIrpNK60YVOnk4wQiFg-4" value="pause" style="rounded=1;whiteSpace=wrap;html=1;" vertex="1" parent="1">
          <mxGeometry x="280" y="600" width="120" height="60" as="geometry" />
        </mxCell>
        <mxCell id="SCIrpNK60YVOnk4wQiFg-10" style="edgeStyle=orthogonalEdgeStyle;rounded=0;orthogonalLoop=1;jettySize=auto;html=1;exitX=0.75;exitY=0;exitDx=0;exitDy=0;entryX=0.75;entryY=1;entryDx=0;entryDy=0;" edge="1" parent="1" source="SCIrpNK60YVOnk4wQiFg-5" target="SCIrpNK60YVOnk4wQiFg-4">
          <mxGeometry relative="1" as="geometry" />
        </mxCell>
        <mxCell id="SCIrpNK60YVOnk4wQiFg-5" value="work" style="rounded=1;whiteSpace=wrap;html=1;" vertex="1" parent="1">
          <mxGeometry x="280" y="760" width="120" height="60" as="geometry" />
        </mxCell>
        <mxCell id="SCIrpNK60YVOnk4wQiFg-11" value="设备信息正确" style="text;html=1;align=center;verticalAlign=middle;whiteSpace=wrap;rounded=0;" vertex="1" parent="1">
          <mxGeometry x="354" y="210" width="60" height="30" as="geometry" />
        </mxCell>
        <mxCell id="SCIrpNK60YVOnk4wQiFg-12" value="点击开始" style="text;html=1;align=center;verticalAlign=middle;whiteSpace=wrap;rounded=0;" vertex="1" parent="1">
          <mxGeometry x="354" y="380" width="60" height="30" as="geometry" />
        </mxCell>
        <mxCell id="SCIrpNK60YVOnk4wQiFg-13" value="按键按下" style="text;html=1;align=center;verticalAlign=middle;whiteSpace=wrap;rounded=0;" vertex="1" parent="1">
          <mxGeometry x="380" y="700" width="60" height="30" as="geometry" />
        </mxCell>
        <mxCell id="SCIrpNK60YVOnk4wQiFg-14" value="按键松开" style="text;html=1;align=center;verticalAlign=middle;whiteSpace=wrap;rounded=0;" vertex="1" parent="1">
          <mxGeometry x="230" y="700" width="60" height="30" as="geometry" />
        </mxCell>
        <mxCell id="SCIrpNK60YVOnk4wQiFg-15" value="Error" style="rounded=1;whiteSpace=wrap;html=1;" vertex="1" parent="1">
          <mxGeometry x="560" y="440" width="120" height="60" as="geometry" />
        </mxCell>
        <mxCell id="SCIrpNK60YVOnk4wQiFg-17" value="设备信息错误" style="text;html=1;align=center;verticalAlign=middle;whiteSpace=wrap;rounded=0;" vertex="1" parent="1">
          <mxGeometry x="470" y="160" width="60" height="30" as="geometry" />
        </mxCell>
      </root>
    </mxGraphModel>
  </diagram>
</mxfile>
